# Blender 4.1.1
# www.blender.org
mtllib bar_segment.mtl
o Bar_Segment
v 0.000000 1.500000 -0.866025
v 0.000000 0.500000 -0.866025
v 0.250000 1.866025 -0.433013
v 0.433013 1.500000 -0.750000
v 0.500000 1.000000 -0.866025
v 0.433013 0.500000 -0.750000
v 0.250000 0.133975 -0.433013
v 0.433013 1.866025 -0.250000
v 0.750000 1.500000 -0.433013
v 0.866025 1.000000 -0.500000
v 0.750000 0.500000 -0.433013
v 0.433013 0.133975 -0.250000
v 0.500000 1.866025 0.000000
v 0.866025 1.500000 0.000000
v 1.000000 1.000000 0.000000
v 0.866025 0.500000 0.000000
v 0.500000 0.133975 0.000000
v 0.433013 1.866025 0.250000
v 0.750000 1.500000 0.433013
v 0.866025 1.000000 0.500000
v 0.750000 0.500000 0.433013
v 0.433013 0.133975 0.250000
v 0.250000 1.866025 0.433013
v 0.433013 1.500000 0.750000
v 0.500000 1.000000 0.866025
v 0.433013 0.500000 0.750000
v 0.250000 0.133975 0.433013
v 0.000000 1.866025 0.500000
v -0.000000 1.500000 0.866025
v 0.000000 1.000000 1.000000
v -0.000000 0.500000 0.866025
v 0.000000 0.133975 0.500000
v 0.000000 2.000000 0.000000
v -0.250000 1.866025 0.433013
v -0.433013 1.500000 0.750000
v -0.500000 1.000000 0.866025
v -0.433013 0.500000 0.750000
v -0.250000 0.133975 0.433013
v 0.000000 0.000000 0.000000
v -0.433013 1.866025 0.250000
v -0.750000 1.500000 0.433013
v -0.866025 1.000000 0.500000
v -0.750000 0.500000 0.433013
v -0.433013 0.133975 0.250000
v -0.500000 1.866025 0.000000
v -0.866025 1.500000 -0.000000
v -1.000000 1.000000 0.000000
v -0.866025 0.500000 -0.000000
v -0.500000 0.133975 0.000000
v -0.433013 1.866025 -0.250000
v -0.750000 1.500000 -0.433013
v -0.866025 1.000000 -0.500000
v -0.750000 0.500000 -0.433013
v -0.433013 0.133975 -0.250000
v -0.250000 1.866025 -0.433013
v -0.433013 1.500000 -0.750000
v -0.500000 1.000000 -0.866025
v -0.433013 0.500000 -0.750000
v -0.250000 0.133975 -0.433013
v 0.000000 1.866025 -0.500000
v 0.000000 1.000000 -1.000000
v 0.000000 0.133975 -0.500000
vn -0.0000 0.4823 -0.8760
vn -0.0000 -0.4823 -0.8760
vn 0.2655 0.8474 -0.4598
vn 0.4380 0.4823 -0.7586
vn 0.5000 -0.0000 -0.8660
vn 0.4380 -0.4823 -0.7586
vn 0.2655 -0.8474 -0.4598
vn 0.4598 0.8474 -0.2655
vn 0.7586 0.4823 -0.4380
vn 0.8660 -0.0000 -0.5000
vn 0.7586 -0.4823 -0.4380
vn 0.4598 -0.8474 -0.2655
vn 0.5309 0.8474 -0.0000
vn 0.8760 0.4823 -0.0000
vn 1.0000 -0.0000 -0.0000
vn 0.8760 -0.4823 -0.0000
vn 0.5309 -0.8474 -0.0000
vn 0.4598 0.8474 0.2655
vn 0.7586 0.4823 0.4380
vn 0.8660 -0.0000 0.5000
vn 0.7586 -0.4823 0.4380
vn 0.4598 -0.8474 0.2655
vn 0.2655 0.8474 0.4598
vn 0.4380 0.4823 0.7586
vn 0.5000 -0.0000 0.8660
vn 0.4380 -0.4823 0.7586
vn 0.2655 -0.8474 0.4598
vn -0.0000 0.8474 0.5309
vn -0.0000 0.4823 0.8760
vn -0.0000 -0.0000 1.0000
vn -0.0000 -0.4823 0.8760
vn -0.0000 -0.8474 0.5309
vn -0.0000 1.0000 -0.0000
vn -0.2655 0.8474 0.4598
vn -0.4380 0.4823 0.7586
vn -0.5000 -0.0000 0.8660
vn -0.4380 -0.4823 0.7586
vn -0.2655 -0.8474 0.4598
vn -0.0000 -1.0000 -0.0000
vn -0.4598 0.8474 0.2655
vn -0.7586 0.4823 0.4380
vn -0.8660 -0.0000 0.5000
vn -0.7586 -0.4823 0.4380
vn -0.4598 -0.8474 0.2655
vn -0.5309 0.8474 -0.0000
vn -0.8760 0.4823 -0.0000
vn -1.0000 -0.0000 -0.0000
vn -0.8760 -0.4823 -0.0000
vn -0.5309 -0.8474 -0.0000
vn -0.4598 0.8474 -0.2655
vn -0.7586 0.4823 -0.4380
vn -0.8660 -0.0000 -0.5000
vn -0.7586 -0.4823 -0.4380
vn -0.4598 -0.8474 -0.2655
vn -0.2655 0.8474 -0.4598
vn -0.4380 0.4823 -0.7586
vn -0.5000 -0.0000 -0.8660
vn -0.4380 -0.4823 -0.7586
vn -0.2655 -0.8474 -0.4598
vn -0.0000 0.8474 -0.5309
vn -0.0000 -0.0000 -1.0000
vn -0.0000 -0.8474 -0.5309
vt 0.700647 0.216992
vt 0.700367 0.283990
vt 0.632023 0.284807
vt 0.638174 0.212375
vt 0.699641 0.352427
vt 0.699833 0.432815
vt 0.655689 0.439127
vt 0.636127 0.357651
vt 0.699738 0.139176
vt 0.657363 0.133281
vt 0.699003 0.545617
vt 0.699378 0.034454
vt 0.567427 0.196533
vt 0.614524 0.110605
vt 0.564130 0.374857
vt 0.553298 0.285770
vt 0.611821 0.461195
vt 0.477302 0.151688
vt 0.576806 0.066890
vt 0.475479 0.413634
vt 0.432173 0.283514
vt 0.569950 0.507185
vt 0.427158 0.480233
vt 0.524120 0.559689
vt 0.438938 0.605380
vt 0.390397 0.523706
vt 0.571328 0.683313
vt 0.544924 0.820020
vt 0.446426 0.784456
vt 0.457294 0.692976
vt 0.445560 0.923251
vt 0.312521 0.960001
vt 0.400735 0.876272
vt 0.305034 0.445064
vt 0.373218 0.771212
vt 0.377344 0.697970
vt 0.355278 0.853542
vt 0.348452 0.546273
vt 0.369651 0.625412
vt 0.311045 0.848061
vt 0.305544 0.553360
vt 0.309431 0.699587
vt 0.306503 0.631879
vt 0.309073 0.767680
vt 0.262277 0.546805
vt 0.239938 0.700970
vt 0.244169 0.628583
vt 0.267272 0.855026
vt 0.245398 0.774299
vt 0.218118 0.524567
vt 0.160141 0.704304
vt 0.172334 0.614554
vt 0.223940 0.878663
vt 0.175261 0.792054
vt 0.174913 0.478301
vt 0.049316 0.710520
vt 0.076916 0.578373
vt 0.182934 0.924601
vt 0.090678 0.831309
vt 0.916885 0.146885
vt 0.963117 0.271436
vt 0.848583 0.280134
vt 0.831685 0.192066
vt 0.935430 0.408159
vt 0.834208 0.511524
vt 0.789668 0.463461
vt 0.836788 0.371140
vt 0.819730 0.067408
vt 0.783414 0.110549
vt 0.744336 0.440108
vt 0.763716 0.356154
vt 0.761527 0.210695
vt 0.741809 0.132697
vt 0.769557 0.282129
s 1
usemtl Bar_Segment_Material
f 2/1/2 61/2/61 5/3/5 6/4/6
f 1/5/1 60/6/60 3/7/3 4/8/4
f 62/9/62 2/1/2 6/4/6 7/10/7
f 61/2/61 1/5/1 4/8/4 5/3/5
f 60/6/60 33/11/33 3/7/3
f 39/12/39 62/9/62 7/10/7
f 7/10/7 6/4/6 11/13/11 12/14/12
f 5/3/5 4/8/4 9/15/9 10/16/10
f 3/7/3 33/11/33 8/17/8
f 39/12/39 7/10/7 12/14/12
f 6/4/6 5/3/5 10/16/10 11/13/11
f 4/8/4 3/7/3 8/17/8 9/15/9
f 12/14/12 11/13/11 16/18/16 17/19/17
f 10/16/10 9/15/9 14/20/14 15/21/15
f 8/17/8 33/11/33 13/22/13
f 39/12/39 12/14/12 17/19/17
f 11/13/11 10/16/10 15/21/15 16/18/16
f 9/15/9 8/17/8 13/22/13 14/20/14
f 17/23/17 16/24/16 21/25/21 22/26/22
f 15/27/15 14/28/14 19/29/19 20/30/20
f 13/31/13 33/32/33 18/33/18
f 39/34/39 17/23/17 22/26/22
f 16/24/16 15/27/15 20/30/20 21/25/21
f 14/28/14 13/31/13 18/33/18 19/29/19
f 20/30/20 19/29/19 24/35/24 25/36/25
f 18/33/18 33/32/33 23/37/23
f 39/34/39 22/26/22 27/38/27
f 21/25/21 20/30/20 25/36/25 26/39/26
f 19/29/19 18/33/18 23/37/23 24/35/24
f 22/26/22 21/25/21 26/39/26 27/38/27
f 23/37/23 33/32/33 28/40/28
f 39/34/39 27/38/27 32/41/32
f 26/39/26 25/36/25 30/42/30 31/43/31
f 24/35/24 23/37/23 28/40/28 29/44/29
f 27/38/27 26/39/26 31/43/31 32/41/32
f 25/36/25 24/35/24 29/44/29 30/42/30
f 39/34/39 32/41/32 38/45/38
f 31/43/31 30/42/30 36/46/36 37/47/37
f 29/44/29 28/40/28 34/48/34 35/49/35
f 32/41/32 31/43/31 37/47/37 38/45/38
f 30/42/30 29/44/29 35/49/35 36/46/36
f 28/40/28 33/32/33 34/48/34
f 39/34/39 38/45/38 44/50/44
f 37/47/37 36/46/36 42/51/42 43/52/43
f 35/49/35 34/48/34 40/53/40 41/54/41
f 38/45/38 37/47/37 43/52/43 44/50/44
f 36/46/36 35/49/35 41/54/41 42/51/42
f 34/48/34 33/32/33 40/53/40
f 39/34/39 44/50/44 49/55/49
f 43/52/43 42/51/42 47/56/47 48/57/48
f 41/54/41 40/53/40 45/58/45 46/59/46
f 44/50/44 43/52/43 48/57/48 49/55/49
f 42/51/42 41/54/41 46/59/46 47/56/47
f 40/53/40 33/32/33 45/58/45
f 48/60/48 47/61/47 52/62/52 53/63/53
f 46/64/46 45/65/45 50/66/50 51/67/51
f 49/68/49 48/60/48 53/63/53 54/69/54
f 47/61/47 46/64/46 51/67/51 52/62/52
f 45/65/45 33/11/33 50/66/50
f 39/12/39 49/68/49 54/69/54
f 51/67/51 50/66/50 55/70/55 56/71/56
f 54/69/54 53/63/53 58/72/58 59/73/59
f 52/62/52 51/67/51 56/71/56 57/74/57
f 50/66/50 33/11/33 55/70/55
f 39/12/39 54/69/54 59/73/59
f 53/63/53 52/62/52 57/74/57 58/72/58
f 59/73/59 58/72/58 2/1/2 62/9/62
f 57/74/57 56/71/56 1/5/1 61/2/61
f 55/70/55 33/11/33 60/6/60
f 39/12/39 59/73/59 62/9/62
f 58/72/58 57/74/57 61/2/61 2/1/2
f 56/71/56 55/70/55 60/6/60 1/5/1
