# Blender 4.1.1
# www.blender.org
mtllib door_single.mtl
o Door_(Single)
v -0.656250 2.500000 0.250000
v -0.656250 2.500000 -0.250000
v -0.750000 0.000000 0.250000
v -0.750000 0.000000 -0.250000
v 0.750000 0.000000 0.250000
v 0.750000 0.000000 -0.250000
v 0.656250 2.500000 0.250000
v 0.656250 2.500000 -0.250000
v 0.368584 3.307496 0.250000
v 0.368584 3.307496 -0.250000
v 0.000000 3.684812 0.250000
v -0.000000 3.684812 -0.250000
v -0.368584 3.307496 0.250000
v -0.368584 3.307496 -0.250000
v -0.875000 2.500000 0.250000
v -1.000000 0.000000 0.250000
v -1.000000 0.000000 -0.250000
v -0.875000 2.500000 -0.250000
v 1.000000 0.000000 0.250000
v 1.000000 0.000000 -0.250000
v 0.875000 2.500000 0.250000
v 0.875000 2.500000 -0.250000
v 0.530330 3.457103 0.250000
v 0.530330 3.457103 -0.250000
v 0.000000 4.000000 0.250000
v -0.000000 4.000000 -0.250000
v -0.530330 3.457103 0.250000
v -0.530330 3.457103 -0.250000
v -0.875000 2.500000 0.072917
v -0.875000 2.500000 -0.072917
v -1.000000 0.000000 -0.083333
v -1.000000 0.000000 0.083333
v 1.000000 0.000000 -0.083333
v 1.000000 0.000000 0.083333
v 0.875000 2.500000 -0.072917
v 0.875000 2.500000 0.072917
v 0.530330 3.457103 -0.083333
v 0.530330 3.457103 0.083333
v -0.000000 3.999997 -0.083333
v 0.000000 3.999997 0.083333
v -0.530330 3.457103 -0.083333
v -0.530330 3.457103 0.083333
v 0.656250 2.500000 0.072917
v 0.656250 2.500000 -0.072917
v -0.750000 0.000000 0.083333
v -0.750000 0.000000 -0.083333
v 0.750000 0.000000 0.083333
v 0.750000 0.000000 -0.083333
v -0.656250 2.500000 0.072917
v -0.656250 2.500000 -0.072917
v 0.368584 3.307496 0.083333
v 0.368584 3.307496 -0.083333
v -0.368584 3.307496 0.083333
v -0.368584 3.307496 -0.083333
v 0.000000 3.684812 0.083333
v -0.000000 3.684812 -0.083333
v -0.000000 0.000000 -0.083333
v 0.000000 0.000000 0.083333
v 0.000000 2.500000 0.083333
v -0.000000 2.500000 -0.083333
vn 0.6573 -0.1263 0.7429
vn 0.6573 -0.1263 -0.7429
vn 0.5655 -0.5871 0.5793
vn 0.5655 -0.5871 -0.5793
vn -0.5655 -0.5871 0.5793
vn -0.5655 -0.5871 -0.5793
vn -0.6573 -0.1263 0.7429
vn -0.6573 -0.1263 -0.7429
vn -0.5527 -0.3450 0.7586
vn -0.5527 -0.3450 -0.7586
vn -0.0000 -0.4206 0.9073
vn -0.0000 -0.4206 -0.9073
vn 0.5527 -0.3450 0.7586
vn 0.5527 -0.3450 -0.7586
vn -0.7231 0.1449 0.6754
vn -0.5929 -0.5640 0.5748
vn -0.5929 -0.5640 -0.5748
vn -0.7231 0.1449 -0.6754
vn 0.5929 -0.5640 0.5748
vn 0.5929 -0.5640 -0.5748
vn 0.7231 0.1449 0.6754
vn 0.7231 0.1449 -0.6754
vn 0.6349 0.3978 0.6623
vn 0.6349 0.3978 -0.6623
vn -0.0000 0.8173 0.5761
vn -0.0000 0.8173 -0.5761
vn -0.6349 0.3978 0.6623
vn -0.6349 0.3978 -0.6623
vn -0.9805 0.1965 -0.0000
vn -0.7245 -0.6892 -0.0000
vn 0.7245 -0.6892 -0.0000
vn 0.9805 0.1965 -0.0000
vn 0.8474 0.5309 -0.0000
vn -0.0000 1.0000 -0.0000
vn -0.8474 0.5309 -0.0000
vn -0.7208 -0.1396 0.6790
vn -0.7208 -0.1396 -0.6790
vn 0.2978 -0.9088 0.2923
vn 0.2978 -0.9088 -0.2922
vn -0.2978 -0.9088 0.2923
vn -0.2978 -0.9088 -0.2922
vn 0.7208 -0.1396 0.6790
vn 0.7208 -0.1396 -0.6790
vn -0.6332 -0.4007 0.6622
vn -0.6332 -0.4007 -0.6622
vn 0.6332 -0.4007 0.6622
vn 0.6332 -0.4007 -0.6622
vn -0.0000 -0.8181 0.5751
vn -0.0000 -0.8181 -0.5751
vn -0.0000 -0.7063 -0.7079
vn -0.0000 -0.7063 0.7079
vn -0.0000 -0.0009 1.0000
vn -0.0000 -0.0009 -1.0000
vt 0.112105 0.676399
vt 0.131334 0.676283
vt 0.133232 0.949744
vt 0.114000 0.949855
vt 0.113972 0.050099
vt 0.133207 0.050106
vt 0.132611 0.323620
vt 0.113340 0.323571
vt 0.131591 0.432783
vt 0.113752 0.431994
vt 0.124340 0.499975
vt 0.111021 0.499930
vt 0.029859 0.947937
vt 0.033961 0.671053
vt 0.054229 0.671205
vt 0.047496 0.948293
vt 0.131157 0.567663
vt 0.113279 0.568246
vt 0.035438 0.329240
vt 0.029859 0.052484
vt 0.047486 0.052033
vt 0.055551 0.328983
vt 0.077006 0.676385
vt 0.076391 0.949893
vt 0.154066 0.671021
vt 0.162112 0.947980
vt 0.076365 0.050267
vt 0.078283 0.323721
vt 0.162103 0.051703
vt 0.155388 0.328799
vt 0.054980 0.428888
vt 0.078461 0.432341
vt 0.155069 0.429695
vt 0.056440 0.499948
vt 0.085278 0.500030
vt 0.153178 0.500057
vt 0.054549 0.570309
vt 0.078027 0.567222
vt 0.154638 0.571117
vt 0.036247 0.428833
vt 0.173371 0.571171
vt 0.174180 0.670765
vt 0.174865 0.500836
vt 0.175473 0.430160
vt 0.603254 0.704330
vt 0.625024 0.704330
vt 0.625024 0.736986
vt 0.603254 0.736986
vt 0.603254 0.965579
vt 0.603254 0.932922
vt 0.625024 0.932922
vt 0.625024 0.965579
vt 0.559712 0.965579
vt 0.559712 0.932922
vt 0.581483 0.932922
vt 0.581483 0.965579
vt 0.559712 0.704330
vt 0.581483 0.704330
vt 0.581483 0.736986
vt 0.559712 0.736986
vt 0.034753 0.499168
vt 0.034145 0.569844
vt 0.175657 0.328950
vt 0.179740 0.052058
vt 0.095866 0.568010
vt 0.096277 0.676435
vt 0.098597 0.500074
vt 0.179740 0.947530
vt 0.096339 0.431758
vt 0.097512 0.323604
vt 0.095597 0.050154
vt 0.095625 0.949901
vt 0.397210 0.623550
vt 0.397210 0.052064
vt 0.568655 0.052058
vt 0.547243 0.623546
vt 0.788012 0.623549
vt 0.637979 0.623546
vt 0.616568 0.052058
vt 0.788012 0.052064
vt 0.581483 0.834954
vt 0.603254 0.834954
vt 0.788012 0.894388
vt 0.703758 0.808138
vt 0.397210 0.894388
vt 0.481464 0.808138
vt 0.938046 0.623546
vt 0.959457 0.052058
vt 0.247176 0.623546
vt 0.225765 0.052058
vt 0.312956 0.808138
vt 0.872267 0.808138
s 1
usemtl Door_(Single)_Material
f 30/1/29 18/2/18 17/3/17 31/4/30
f 33/5/31 20/6/20 22/7/22 35/8/32
f 35/8/32 22/7/22 24/9/24 37/10/33
f 37/10/33 24/9/24 26/11/26 39/12/34
f 45/13/38 49/14/42 1/15/1 3/16/3
f 39/12/34 26/11/26 28/17/28 41/18/35
f 41/18/35 28/17/28 18/2/18 30/1/29
f 43/19/36 47/20/40 5/21/5 7/22/7
f 3/16/3 1/15/1 15/23/15 16/24/16
f 2/25/2 4/26/4 17/3/17 18/2/18
f 7/22/7 5/21/5 19/27/19 21/28/21
f 6/29/6 8/30/8 22/7/22 20/6/20
f 9/31/9 7/22/7 21/28/21 23/32/23
f 8/30/8 10/33/10 24/9/24 22/7/22
f 11/34/11 9/31/9 23/32/23 25/35/25
f 10/33/10 12/36/12 26/11/26 24/9/24
f 13/37/13 11/34/11 25/35/25 27/38/27
f 12/36/12 14/39/14 28/17/28 26/11/26
f 1/15/1 13/37/13 27/38/27 15/23/15
f 14/39/14 2/25/2 18/2/18 28/17/28
f 43/19/36 7/22/7 9/31/9 51/40/44
f 54/41/47 50/42/43 2/25/2 14/39/14
f 56/43/49 54/41/47 14/39/14 12/36/12
f 52/44/45 56/43/49 12/36/12 10/33/10
f 34/45/31 19/46/19 5/47/5 47/48/40
f 32/49/30 45/50/38 3/51/3 16/52/16
f 17/53/17 4/54/4 46/55/39 31/56/30
f 31/56/30 46/55/39 45/50/38 32/49/30
f 20/57/20 33/58/31 48/59/41 6/60/6
f 33/58/31 34/45/31 47/48/40 48/59/41
f 9/31/9 11/34/11 55/61/48 51/40/44
f 11/34/11 13/37/13 53/62/46 55/61/48
f 13/37/13 1/15/1 49/14/42 53/62/46
f 8/30/8 44/63/37 52/44/45 10/33/10
f 8/30/8 6/29/6 48/64/41 44/63/37
f 27/38/27 42/65/35 29/66/29 15/23/15
f 42/65/35 41/18/35 30/1/29 29/66/29
f 25/35/25 40/67/34 42/65/35 27/38/27
f 40/67/34 39/12/34 41/18/35 42/65/35
f 4/26/4 2/25/2 50/42/43 46/68/39
f 23/32/23 38/69/33 40/67/34 25/35/25
f 38/69/33 37/10/33 39/12/34 40/67/34
f 21/28/21 36/70/32 38/69/33 23/32/23
f 36/70/32 35/8/32 37/10/33 38/69/33
f 19/27/19 34/71/31 36/70/32 21/28/21
f 34/71/31 33/5/31 35/8/32 36/70/32
f 15/23/15 29/66/29 32/72/30 16/24/16
f 29/66/29 30/1/29 31/4/30 32/72/30
f 60/73/53 57/74/50 46/75/39 50/76/43
f 59/77/52 49/78/42 45/79/38 58/80/51
f 57/81/50 48/59/41 47/48/40 58/82/51
f 55/83/48 53/84/46 49/78/42 59/77/52
f 56/85/49 60/73/53 50/76/43 54/86/47
f 46/55/39 57/81/50 58/82/51 45/50/38
f 43/87/36 59/77/52 58/80/51 47/88/40
f 44/89/37 48/90/41 57/74/50 60/73/53
f 52/91/45 44/89/37 60/73/53 56/85/49
f 51/92/44 55/83/48 59/77/52 43/87/36
