# Blender 4.1.1
# www.blender.org
mtllib hazard_block_-_spikes.mtl
o Spikes
v -0.811458 0.019000 0.633333
v -0.455208 0.019000 0.633333
v -0.633333 0.019000 0.455208
v -0.633333 0.019000 0.811458
v -0.633333 0.494000 0.633333
v -0.178125 0.019000 0.633333
v 0.178125 0.019000 0.633333
v 0.000000 0.019000 0.455208
v 0.000000 0.019000 0.811458
v 0.000000 0.494000 0.633333
v 0.455208 0.019000 0.633333
v 0.811458 0.019000 0.633333
v 0.633333 0.019000 0.455208
v 0.633333 0.019000 0.811458
v 0.633333 0.494000 0.633333
v -0.811458 0.019000 -0.633333
v -0.455208 0.019000 -0.633333
v -0.633333 0.019000 -0.811458
v -0.633333 0.019000 -0.455208
v -0.633333 0.494000 -0.633333
v -0.178125 0.019000 -0.633333
v 0.178125 0.019000 -0.633333
v 0.000000 0.019000 -0.811458
v 0.000000 0.019000 -0.455208
v 0.000000 0.494000 -0.633333
v 0.455208 0.019000 -0.633333
v 0.811458 0.019000 -0.633333
v 0.633333 0.019000 -0.811458
v 0.633333 0.019000 -0.455208
v 0.633333 0.494000 -0.633333
v -0.811458 0.019000 -0.000000
v -0.455208 0.019000 -0.000000
v -0.633333 0.019000 -0.178125
v -0.633333 0.019000 0.178125
v -0.633333 0.494000 -0.000000
v -0.178125 0.019000 -0.000000
v 0.178125 0.019000 -0.000000
v 0.000000 0.019000 -0.178125
v 0.000000 0.019000 0.178125
v 0.000000 0.494000 -0.000000
v 0.455208 0.019000 -0.000000
v 0.811458 0.019000 -0.000000
v 0.633333 0.019000 -0.178125
v 0.633333 0.019000 0.178125
v 0.633333 0.494000 -0.000000
v -0.811458 0.000000 0.633333
v -0.455208 0.000000 0.633333
v -0.633333 0.000000 0.811458
v 0.000000 0.000000 0.811458
v 0.811458 0.000000 0.633333
v 0.633333 0.000000 0.455208
v 0.633333 0.000000 0.811458
v -0.811458 0.000000 -0.633333
v -0.455208 0.000000 -0.633333
v -0.633333 0.000000 -0.811458
v 0.000000 0.000000 -0.811458
v 0.000000 0.000000 -0.455208
v 0.811458 0.000000 -0.633333
v 0.633333 0.000000 -0.811458
v 0.633333 0.000000 -0.455208
v -0.811458 0.000000 -0.000000
v -0.455208 0.000000 -0.000000
v 0.000000 0.000000 -0.178125
v 0.000000 0.000000 0.178125
v 0.811458 0.000000 -0.000000
v -0.633333 0.000000 0.455208
v -0.178125 0.000000 0.633333
v 0.178125 0.000000 0.633333
v 0.000000 0.000000 0.455208
v 0.455208 0.000000 0.633333
v -0.633333 0.000000 -0.455208
v -0.178125 0.000000 -0.633333
v 0.178125 0.000000 -0.633333
v 0.455208 0.000000 -0.633333
v -0.633333 0.000000 -0.178125
v -0.633333 0.000000 0.178125
v -0.178125 0.000000 -0.000000
v 0.178125 0.000000 -0.000000
v 0.455208 0.000000 -0.000000
v 0.633333 0.000000 -0.178125
v 0.633333 0.000000 0.178125
vn -0.9862 0.1657 -0.0000
vn 0.9862 0.1657 -0.0000
vn -0.0000 0.1657 -0.9862
vn -0.0000 0.1657 0.9862
vn -0.0000 1.0000 -0.0000
vn -1.0000 -0.0000 -0.0000
vn 0.6860 0.7276 -0.0000
vn -0.0000 -0.0000 1.0000
vn 1.0000 -0.0000 -0.0000
vn -0.0000 0.7276 -0.6860
vn -0.0000 -0.0000 -1.0000
vn -0.0000 0.9045 0.4264
vn -0.0000 0.7276 0.6860
vn 0.4264 0.9045 -0.0000
vn -0.0000 0.9045 -0.4264
vn -0.6860 0.7276 -0.0000
vn -0.4264 0.9045 -0.0000
vt 0.732053 0.340161
vt 0.730135 0.511964
vt 0.645186 0.426034
vt 0.559734 0.510689
vt 0.961786 0.343175
vt 0.957647 0.516311
vt 0.873212 0.429039
vt 0.558781 0.338810
vt 0.787213 0.512408
vt 0.963879 0.111453
vt 0.962899 0.283363
vt 0.877434 0.196918
vt 0.788605 0.341934
vt 0.790989 0.282383
vt 0.207671 0.798068
vt 0.206396 0.968469
vt 0.121741 0.883017
vt 0.791969 0.110473
vt 0.034517 0.969422
vt 0.437502 0.794184
vt 0.438777 0.964585
vt 0.352846 0.879636
vt 0.035868 0.796150
vt 0.266974 0.966504
vt 0.670598 0.791896
vt 0.671551 0.963776
vt 0.585146 0.876552
vt 0.265622 0.793231
vt 0.498279 0.962424
vt 0.203028 0.560472
vt 0.204420 0.730946
vt 0.118420 0.647577
vt 0.500197 0.790621
vt 0.033985 0.734849
vt 0.437966 0.555941
vt 0.439241 0.726342
vt 0.353311 0.641393
vt 0.029846 0.561713
vt 0.267438 0.728261
vt 0.676528 0.557022
vt 0.675287 0.730203
vt 0.589423 0.641630
vt 0.266087 0.554988
vt 0.502150 0.726065
vt 0.506054 0.555630
vt 0.545828 0.525630
vt 0.543464 0.324525
vt 0.221337 0.982375
vt 0.020232 0.984739
vt 0.251802 0.539671
vt 0.452907 0.542035
vt 0.684504 0.776955
vt 0.686868 0.978061
vt 0.020232 0.780278
vt 0.452871 0.739818
vt 0.251802 0.744132
vt 0.486722 0.776991
vt 0.977987 0.096366
vt 0.977987 0.297470
vt 0.482407 0.978061
vt 0.776882 0.096366
vt 0.020232 0.750278
vt 0.013646 0.546008
vt 0.776882 0.297470
vt 0.218022 0.546247
vt 0.218022 0.744132
vt 0.251337 0.777914
vt 0.452443 0.780278
vt 0.690753 0.542028
vt 0.690992 0.746404
vt 0.452407 0.978061
vt 0.251337 0.982375
vt 0.492868 0.542028
vt 0.977987 0.327470
vt 0.971400 0.531740
vt 0.486722 0.739818
vt 0.773610 0.327709
vt 0.747925 0.324525
vt 0.743610 0.525594
vt 0.773610 0.525594
vt 0.221302 0.784593
vt 0.020232 0.331733
vt 0.089593 0.262373
vt 0.089593 0.508989
vt 0.020232 0.439628
vt 0.266848 0.439628
vt 0.197487 0.508989
vt 0.197487 0.262373
vt 0.266848 0.331734
vt 0.513464 0.439628
vt 0.444103 0.508989
vt 0.444103 0.262373
vt 0.513464 0.331733
vt 0.444103 0.015757
vt 0.513464 0.085118
vt 0.513464 0.193012
vt 0.197487 0.015757
vt 0.266848 0.085118
vt 0.266848 0.193012
vt 0.336209 0.508989
vt 0.336209 0.262373
vt 0.336209 0.015757
vt 0.020232 0.085118
vt 0.089593 0.015757
vt 0.020232 0.193012
s 1
usemtl Hazard_-_Spikes_Material
f 2/1/2 3/2/3 5/3/5
f 1/4/1 5/3/5 3/2/3
f 7/5/2 8/6/3 10/7/5
f 4/8/4 2/1/2 5/3/5
f 4/8/4 5/3/5 1/4/1
f 6/9/1 10/7/5 8/6/3
f 12/10/2 13/11/3 15/12/5
f 9/13/4 7/5/2 10/7/5
f 9/13/4 10/7/5 6/9/1
f 11/14/1 15/12/5 13/11/3
f 17/15/2 18/16/3 20/17/5
f 14/18/4 12/10/2 15/12/5
f 14/18/4 15/12/5 11/14/1
f 16/19/1 20/17/5 18/16/3
f 22/20/2 23/21/3 25/22/5
f 19/23/4 17/15/2 20/17/5
f 19/23/4 20/17/5 16/19/1
f 21/24/1 25/22/5 23/21/3
f 27/25/2 28/26/3 30/27/5
f 24/28/4 22/20/2 25/22/5
f 24/28/4 25/22/5 21/24/1
f 26/29/1 30/27/5 28/26/3
f 32/30/2 33/31/3 35/32/5
f 29/33/4 27/25/2 30/27/5
f 29/33/4 30/27/5 26/29/1
f 33/31/3 31/34/1 35/32/5
f 37/35/2 38/36/3 40/37/5
f 32/30/2 35/32/5 34/38/4
f 31/34/1 34/38/4 35/32/5
f 36/39/1 40/37/5 38/36/3
f 42/40/2 43/41/3 45/42/5
f 39/43/4 37/35/2 40/37/5
f 39/43/4 40/37/5 36/39/1
f 41/44/1 45/42/5 43/41/3
f 44/45/4 42/40/2 45/42/5
f 44/45/4 45/42/5 41/44/1
f 4/8/4 1/4/1 46/46/6 48/47/8
f 16/19/1 18/16/3 55/48/11 53/49/6
f 39/43/4 64/50/12 78/51/14 37/35/2
f 28/26/3 27/25/2 58/52/9 59/53/11
f 19/23/4 16/19/1 53/49/6 71/54/13
f 38/36/3 63/55/15 77/56/17 36/39/1
f 27/25/2 29/33/4 60/57/13 58/52/9
f 36/39/1 77/56/17 64/50/12 39/43/4
f 13/11/3 12/10/2 50/58/9 51/59/10
f 26/29/1 74/60/16 60/57/13 29/33/4
f 12/10/2 14/18/4 52/61/8 50/58/9
f 34/38/4 31/34/1 61/62/6 76/63/13
f 13/11/3 51/59/10 70/64/16 11/14/1
f 34/38/4 76/63/13 62/65/14 32/30/2
f 14/18/4 11/14/1 70/64/16 52/61/8
f 32/30/2 62/65/14 75/66/10 33/31/3
f 24/28/4 57/67/12 73/68/7 22/20/2
f 43/41/3 42/40/2 65/69/9 80/70/10
f 31/34/1 33/31/3 75/66/10 61/62/6
f 21/24/1 23/21/3 56/71/11 72/72/16
f 42/40/2 44/45/4 81/73/13 65/69/9
f 7/5/2 68/74/7 69/75/15 8/6/3
f 21/24/1 72/72/16 57/67/12 24/28/4
f 43/41/3 80/70/10 79/76/17 41/44/1
f 7/5/2 9/13/4 49/77/8 68/74/7
f 41/44/1 79/76/17 81/73/13 44/45/4
f 2/1/2 47/78/7 66/79/10 3/2/3
f 8/6/3 69/75/15 67/80/16 6/9/1
f 2/1/2 4/8/4 48/47/8 47/78/7
f 18/16/3 17/15/2 54/81/7 55/48/11
f 9/13/4 6/9/1 67/80/16 49/77/8
f 1/4/1 3/2/3 66/79/10 46/46/6
f 19/23/4 71/54/13 54/81/7 17/15/2
f 37/35/2 78/51/14 63/55/15 38/36/3
f 75/82/10 62/83/14 54/84/7 71/85/13
f 57/86/12 72/87/16 77/88/17 63/89/15
f 60/90/13 74/91/16 79/92/17 80/93/10
f 70/94/16 51/95/10 81/96/13 79/92/17
f 67/97/16 69/98/15 64/99/12 77/88/17
f 73/100/7 57/86/12 63/89/15 78/101/14
f 69/98/15 68/102/7 78/101/14 64/99/12
f 62/83/14 77/88/17 72/87/16 54/84/7
f 66/103/10 47/104/7 62/83/14 76/105/13
f 77/88/17 62/83/14 47/104/7 67/97/16
f 79/92/17 78/101/14 68/102/7 70/94/16
f 79/92/17 74/91/16 73/100/7 78/101/14
f 26/29/1 28/26/3 59/53/11 74/60/16
f 22/20/2 73/68/7 56/71/11 23/21/3
