# Blender 4.1.1
# www.blender.org
mtllib phase_block_-_cover.mtl
o Phase_Block_Cover
v 1.000000 1.500000 -1.000000
v 1.000000 1.500000 1.000000
v -1.000000 1.500000 -1.000000
v -1.000000 1.500000 1.000000
v -1.237250 0.000000 -1.237250
v 1.237250 0.000000 -1.237250
v 1.237250 0.000000 1.237250
v -1.237250 0.000000 1.237250
v -1.250000 0.000000 -1.250000
v 1.250000 0.000000 -1.250000
v 1.250000 0.000000 1.250000
v -1.250000 0.000000 1.250000
v 1.000000 1.000000 -1.000000
v 1.000000 1.000000 1.000000
v -1.000000 1.000000 -1.000000
v -1.000000 1.000000 1.000000
vn -0.0000 1.0000 -0.0000
vn -0.0000 -1.0000 -0.0000
vn -0.0000 0.1644 -0.9864
vn -0.0000 0.1644 0.9864
vn 0.9864 0.1644 -0.0000
vn -0.9864 0.1644 -0.0000
vn 0.9730 -0.2308 -0.0000
vn -0.0000 -0.2308 -0.9730
vn -0.9730 -0.2308 -0.0000
vn -0.0000 -0.2308 0.9730
vt 0.361696 0.764127
vt 0.241331 0.786875
vt 0.209864 0.668161
vt 0.330228 0.645413
vt 0.666904 0.341244
vt 0.667507 0.172329
vt 0.836018 0.184029
vt 0.814816 0.330786
vt 0.518737 0.952366
vt 0.053284 0.948215
vt 0.052823 0.479922
vt 0.518275 0.484073
vt 0.050090 0.950914
vt 0.521469 0.955583
vt 0.521469 0.481374
vt 0.050090 0.476705
vt 0.949910 0.046705
vt 0.949910 0.476105
vt 0.564229 0.061234
vt 0.521650 0.444832
s 0
usemtl Phase_-_Cover_Material
f 1/1/1 3/2/1 4/3/1 2/4/1
f 13/5/2 14/6/2 16/7/2 15/8/2
f 1/1/3 10/9/3 9/10/3 3/2/3
f 4/3/4 12/11/4 11/12/4 2/4/4
f 2/4/5 11/12/5 10/9/5 1/1/5
f 3/2/6 9/10/6 12/11/6 4/3/6
f 5/13/2 9/10/2 10/9/2 6/14/2
f 6/14/2 10/9/2 11/12/2 7/15/2
f 8/16/2 12/11/2 9/10/2 5/13/2
f 7/15/2 11/12/2 12/11/2 8/16/2
f 8/17/7 5/18/7 15/8/7 16/7/7
f 7/19/8 8/17/8 16/7/8 14/6/8
f 7/19/9 14/6/9 13/5/9 6/20/9
f 6/20/10 13/5/10 15/8/10 5/18/10
