# Blender 4.1.1
# www.blender.org
mtllib phase_block_-_block.mtl
o Phase_Block
v 0.950000 2.000000 -1.000000
v 1.000000 2.000000 -0.950000
v -0.950000 2.000000 1.000000
v -1.000000 2.000000 0.950000
v 1.000000 2.000000 0.950000
v 0.950000 2.000000 1.000000
v -1.000000 2.000000 -0.950000
v -0.950000 2.000000 -1.000000
v 1.000000 0.000000 -0.950000
v 0.950000 0.000000 -1.000000
v -1.000000 0.000000 0.950000
v -0.950000 0.000000 1.000000
v 0.950000 0.000000 1.000000
v 1.000000 0.000000 0.950000
v -0.950000 0.000000 -1.000000
v -1.000000 0.000000 -0.950000
v 0.975000 2.000000 -0.975000
v 0.975000 0.000000 -0.975000
v 0.939645 2.000000 -0.939645
v 0.939645 0.000000 -0.939645
v 0.975915 2.000000 0.974085
v 0.975915 0.000000 0.974085
v 0.940023 2.000000 0.939266
v 0.940023 0.000000 0.939266
v -0.975000 0.000000 0.975000
v -0.975000 2.000000 0.975000
v -0.939645 2.000000 0.939645
v -0.939645 0.000000 0.939645
v -0.977707 2.000000 -0.972293
v -0.977707 0.000000 -0.972293
v -0.940766 2.000000 -0.938523
v -0.940766 0.000000 -0.938523
vn -1.0000 -0.0000 -0.0000
vn -0.0000 -0.0000 1.0000
vn 1.0000 -0.0000 -0.0000
vn 0.7071 -0.0000 -0.7071
vn -0.7071 -0.0000 0.7071
vn 0.7071 -0.0000 0.7071
vn -0.7071 -0.0000 -0.7071
vn -0.0000 -0.0000 -1.0000
vn -0.0000 1.0000 -0.0000
vn -0.0000 -1.0000 -0.0000
vt 0.318096 0.352120
vt 0.318096 0.653424
vt 0.031858 0.653424
vt 0.031858 0.352120
vt 0.639660 0.352120
vt 0.639660 0.653424
vt 0.353422 0.653424
vt 0.353422 0.352120
vt 0.966911 0.352120
vt 0.966911 0.653424
vt 0.680673 0.653424
vt 0.680673 0.352120
vt 0.677193 0.322120
vt 0.677193 0.020817
vt 0.682519 0.020817
vt 0.682519 0.322120
vt 0.323422 0.352120
vt 0.323422 0.653424
vt 0.675541 0.653424
vt 0.675541 0.352120
vt 0.027108 0.653424
vt 0.027108 0.352120
vt 0.968757 0.020817
vt 0.968757 0.322120
vt 0.354813 0.975465
vt 0.354982 0.692516
vt 0.638157 0.692573
vt 0.638100 0.975634
vt 0.638100 0.313028
vt 0.355039 0.313085
vt 0.354982 0.029910
vt 0.637931 0.029741
vt 0.647193 0.690956
vt 0.647193 0.977194
vt 0.345889 0.977194
vt 0.345889 0.690956
vt 0.643426 0.980961
vt 0.639660 0.984727
vt 0.345889 0.314588
vt 0.345889 0.028350
vt 0.647193 0.028350
vt 0.647193 0.314588
vt 0.643426 0.318354
vt 0.639660 0.322120
vt 0.353422 0.322120
vt 0.349793 0.318492
vt 0.639660 0.683424
vt 0.643564 0.687328
vt 0.972237 0.352120
vt 0.972237 0.653424
vt 0.349656 0.024583
vt 0.353422 0.020817
vt 0.349656 0.687190
vt 0.353422 0.683424
vt 0.645181 0.352120
vt 0.645181 0.653424
vt 0.639660 0.020817
vt 0.643019 0.024175
vt 0.353422 0.984727
vt 0.349248 0.980553
vt 0.348096 0.653424
vt 0.348096 0.352120
vt 0.974660 0.020817
vt 0.974660 0.322120
s 0
usemtl Phase_-_Block_Material
f 11/1/1 4/2/1 7/3/1 16/4/1
f 13/5/2 6/6/2 3/7/2 12/8/2
f 9/9/3 2/10/3 5/11/3 14/12/3
f 17/13/4 18/14/4 10/15/4 1/16/4
f 25/17/5 26/18/5 4/2/5 11/1/5
f 21/19/6 22/20/6 14/12/6 5/11/6
f 29/21/7 30/22/7 16/4/7 7/3/7
f 15/23/8 8/24/8 1/16/8 10/15/8
f 31/25/9 27/26/9 23/27/9 19/28/9
f 20/29/10 24/30/10 28/31/10 32/32/10
f 19/28/9 23/27/9 5/33/9 2/34/9
f 27/26/9 31/25/9 7/35/9 4/36/9
f 19/28/9 2/34/9 17/37/9 1/38/9
f 28/31/10 24/30/10 13/39/10 12/40/10
f 20/29/10 32/32/10 15/41/10 10/42/10
f 20/29/10 10/42/10 18/43/10 9/44/10
f 24/30/10 14/45/10 22/46/10 13/39/10
f 23/27/9 6/47/9 21/48/9 5/33/9
f 2/10/4 9/9/4 18/49/4 17/50/4
f 28/31/10 12/40/10 25/51/10 11/52/10
f 27/26/9 4/36/9 26/53/9 3/54/9
f 6/6/6 13/5/6 22/55/6 21/56/6
f 32/32/10 16/57/10 30/58/10 15/41/10
f 31/25/9 8/59/9 29/60/9 7/35/9
f 12/8/5 3/7/5 26/61/5 25/62/5
f 8/24/7 15/23/7 30/63/7 29/64/7
f 32/32/10 28/31/10 11/52/10 16/57/10
f 24/30/10 20/29/10 9/44/10 14/45/10
f 23/27/9 27/26/9 3/54/9 6/47/9
f 31/25/9 19/28/9 1/38/9 8/59/9
