# Blender 4.1.1
# www.blender.org
mtllib button_block_-_button.mtl
o Button
v 0.000000 -0.000000 -0.750000
v 0.530330 -0.000000 -0.530330
v 0.750000 -0.000000 0.000000
v 0.530330 -0.000000 0.530330
v 0.000000 -0.000000 0.750000
v -0.530330 -0.000000 0.530330
v -0.750000 -0.000000 0.000000
v -0.530330 -0.000000 -0.530330
v 0.000000 0.250000 0.000000
v 0.000000 0.230000 -0.750000
v 0.000000 0.250000 -0.728352
v 0.515023 0.250000 -0.515023
v 0.530330 0.230000 -0.530330
v 0.728352 0.250000 0.000000
v 0.750000 0.230000 0.000000
v 0.515023 0.250000 0.515023
v 0.530330 0.230000 0.530330
v 0.000000 0.250000 0.728352
v 0.000000 0.230000 0.750000
v -0.515023 0.250000 0.515023
v -0.530330 0.230000 0.530330
v -0.728352 0.250000 0.000000
v -0.750000 0.230000 0.000000
v -0.515023 0.250000 -0.515023
v -0.530330 0.230000 -0.530330
vn -0.0000 -0.0000 -1.0000
vn 0.7071 -0.0000 -0.7071
vn 1.0000 -0.0000 -0.0000
vn 0.7071 -0.0000 0.7071
vn -0.0000 -0.0000 1.0000
vn -0.7071 -0.0000 0.7071
vn -1.0000 -0.0000 -0.0000
vn -0.7071 -0.0000 -0.7071
vn -0.0000 1.0000 -0.0000
vn -0.0000 0.3688 -0.9295
vn -0.0000 0.8991 -0.4377
vn 0.3095 0.8991 -0.3095
vn 0.6572 0.3688 -0.6572
vn 0.4377 0.8991 -0.0000
vn 0.9295 0.3688 -0.0000
vn 0.3095 0.8991 0.3095
vn 0.6572 0.3688 0.6572
vn -0.0000 0.8991 0.4377
vn -0.0000 0.3688 0.9295
vn -0.3095 0.8991 0.3095
vn -0.6572 0.3688 0.6572
vn -0.4377 0.8991 -0.0000
vn -0.9295 0.3688 -0.0000
vn -0.3095 0.8991 -0.3095
vn -0.6572 0.3688 -0.6572
vt 0.039175 0.512113
vt 0.173362 0.513936
vt 0.280291 0.740925
vt 0.184750 0.833901
vt 0.809612 0.488005
vt 0.499326 0.500567
vt 0.486743 0.189074
vt 0.711537 0.272963
vt 0.955758 0.490225
vt 0.823164 0.487508
vt 0.721140 0.262740
vt 0.817442 0.170285
vt 0.187834 0.513290
vt 0.269914 0.289085
vt 0.489140 0.040448
vt 0.486212 0.174597
vt 0.259849 0.279806
vt 0.166658 0.183443
vt 0.511985 0.810855
vt 0.289701 0.730524
vt 0.830238 0.816090
vt 0.737992 0.720609
vt 0.511000 0.957030
vt 0.512589 0.824403
vt 0.727439 0.710881
s 1
usemtl Button_-_Button_Material
f 7/1/7 23/2/23 25/3/25 8/4/8
f 14/5/14 9/6/9 18/7/18 16/8/16
f 3/9/3 15/10/15 17/11/17 4/12/4
f 9/6/9 22/13/22 20/14/20 18/7/18
f 5/15/5 19/16/19 21/17/21 6/18/6
f 6/18/6 21/17/21 23/2/23 7/1/7
f 4/12/4 17/11/17 19/16/19 5/15/5
f 11/19/11 24/20/24 22/13/22 9/6/9
f 2/21/2 13/22/13 15/10/15 3/9/3
f 1/23/1 10/24/10 13/22/13 2/21/2
f 13/22/13 10/24/10 11/19/11 12/25/12
f 15/10/15 13/22/13 12/25/12 14/5/14
f 17/11/17 15/10/15 14/5/14 16/8/16
f 19/16/19 17/11/17 16/8/16 18/7/18
f 21/17/21 19/16/19 18/7/18 20/14/20
f 23/2/23 21/17/21 20/14/20 22/13/22
f 25/3/25 23/2/23 22/13/22 24/20/24
f 10/24/10 25/3/25 24/20/24 11/19/11
f 12/25/12 11/19/11 9/6/9 14/5/14
f 8/4/8 25/3/25 10/24/10 1/23/1
