# Blender 4.1.1
# www.blender.org
mtllib switch_block.mtl
o Switch_Block
v 1.000000 1.950000 -0.950000
v 0.950000 1.950000 -1.000000
v 0.950000 0.050000 -1.000000
v 1.000000 0.050000 -0.950000
v 0.950000 1.950000 1.000000
v 1.000000 1.950000 0.950000
v 1.000000 0.050000 0.950000
v 0.950000 0.050000 1.000000
v -0.950000 1.950000 -1.000000
v -1.000000 1.950000 -0.950000
v -1.000000 0.050000 -0.950000
v -0.950000 0.050000 -1.000000
v -1.000000 1.950000 0.950000
v -0.950000 1.950000 1.000000
v -0.950000 0.050000 1.000000
v -1.000000 0.050000 0.950000
v 0.939645 2.000000 -0.939645
v 0.975000 1.950000 -0.975000
v 0.939645 0.000000 -0.939645
v 0.975000 0.050000 -0.975000
v 0.939645 2.000000 0.939645
v 0.975000 1.950000 0.975000
v 0.939645 0.000000 0.939645
v 0.975000 0.050000 0.975000
v -0.940151 0.000000 0.939138
v -0.976223 0.050000 0.973778
v -0.940151 2.000000 0.939138
v -0.976223 1.950000 0.973778
v -0.938909 2.000000 -0.940381
v -0.973223 1.950000 -0.976777
v -0.938909 0.000000 -0.940381
v -0.973223 0.050000 -0.976777
vn 0.7071 -0.0000 0.7071
vn -0.7071 -0.0000 0.7071
vn -0.7071 -0.0000 -0.7071
vn -0.0000 -0.0000 -1.0000
vn -0.0000 1.0000 -0.0000
vn 1.0000 -0.0000 -0.0000
vn -0.0000 -0.0000 1.0000
vn -1.0000 -0.0000 -0.0000
vn -0.0000 -1.0000 -0.0000
vn 0.5000 0.7071 -0.5000
vn 0.5000 -0.7071 -0.5000
vn -0.5000 -0.7071 0.5000
vn -0.5000 0.7071 0.5000
vn 0.5000 0.7071 0.5000
vn 0.5000 -0.7071 0.5000
vn -0.5000 0.7071 -0.5000
vn -0.5000 -0.7071 -0.5000
vn 0.6380 0.7701 -0.0000
vn -0.0001 0.7714 0.6364
vn 0.0001 0.7682 -0.6403
vn -0.0001 -0.7714 0.6364
vn 0.6380 -0.7701 -0.0000
vn 0.7071 -0.0000 -0.7071
vn -0.6372 -0.7707 -0.0002
vn 0.0001 -0.7682 -0.6403
vn -0.6372 0.7707 -0.0002
vt 0.678939 0.654626
vt 0.678939 0.368588
vt 0.684261 0.368588
vt 0.684261 0.654626
vt 0.321995 0.368718
vt 0.321995 0.654756
vt 0.316932 0.654756
vt 0.316932 0.368718
vt 0.025193 0.654756
vt 0.025193 0.368718
vt 0.030894 0.368718
vt 0.030894 0.654756
vt 0.980545 0.052549
vt 0.980545 0.338588
vt 0.694506 0.338588
vt 0.694506 0.052549
vt 0.637024 0.978287
vt 0.353473 0.978912
vt 0.360728 0.697086
vt 0.640995 0.696190
vt 0.970300 0.368588
vt 0.970300 0.654626
vt 0.643616 0.368718
vt 0.643616 0.654756
vt 0.357578 0.654756
vt 0.357578 0.368718
vt 0.361403 0.038216
vt 0.643090 0.044488
vt 0.643043 0.326428
vt 0.361016 0.320272
vt 0.645217 0.986583
vt 0.640537 0.990946
vt 0.649621 0.981956
vt 0.651047 0.036550
vt 0.655185 0.041044
vt 0.646588 0.032244
vt 0.352909 0.328061
vt 0.348983 0.323778
vt 0.357578 0.332596
vt 0.352834 0.689153
vt 0.357578 0.684756
vt 0.348826 0.693319
vt 0.648730 0.688546
vt 0.652809 0.692926
vt 0.644396 0.684433
vt 0.651022 0.334412
vt 0.646475 0.338588
vt 0.655361 0.329893
vt 0.345505 0.986965
vt 0.340935 0.982009
vt 0.349666 0.990946
vt 0.353657 0.030015
vt 0.357887 0.026158
vt 0.348983 0.034836
vt 0.689184 0.338588
vt 0.689184 0.052549
vt 0.975623 0.368588
vt 0.975623 0.654626
vt 0.648939 0.368718
vt 0.648939 0.654756
vt 0.351995 0.654756
vt 0.351995 0.368718
vt 0.985489 0.052549
vt 0.985489 0.338588
s 0
usemtl Switch_-_Red_Material
f 22/1/1 24/2/1 7/3/1 6/4/1
f 26/5/2 28/6/2 13/7/2 16/8/2
f 30/9/3 32/10/3 11/11/3 10/12/3
f 12/13/4 9/14/4 2/15/4 3/16/4
f 17/17/5 29/18/5 27/19/5 21/20/5
f 4/21/6 1/22/6 6/4/6 7/3/6
f 8/23/7 5/24/7 14/25/7 15/26/7
f 16/8/8 13/7/8 10/12/8 11/11/8
f 31/27/9 19/28/9 23/29/9 25/30/9
f 18/31/10 2/32/10 17/17/10 1/33/10
f 20/34/11 4/35/11 19/28/11 3/36/11
f 26/37/12 16/38/12 25/30/12 15/39/12
f 28/40/13 14/41/13 27/19/13 13/42/13
f 22/43/14 6/44/14 21/20/14 5/45/14
f 24/46/15 8/47/15 23/29/15 7/48/15
f 30/49/16 10/50/16 29/18/16 9/51/16
f 32/52/17 12/53/17 31/27/17 11/54/17
f 17/17/18 21/20/18 6/44/18 1/33/18
f 21/20/19 27/19/19 14/41/19 5/45/19
f 29/18/20 17/17/20 2/32/20 9/51/20
f 25/30/21 23/29/21 8/47/21 15/39/21
f 23/29/22 19/28/22 4/35/22 7/48/22
f 18/55/23 20/56/23 3/16/23 2/15/23
f 1/22/23 4/21/23 20/57/23 18/58/23
f 5/24/1 8/23/1 24/59/1 22/60/1
f 15/26/2 14/25/2 28/61/2 26/62/2
f 9/14/3 12/13/3 32/63/3 30/64/3
f 31/27/24 25/30/24 16/38/24 11/54/24
f 19/28/25 31/27/25 12/53/25 3/36/25
f 27/19/26 29/18/26 10/50/26 13/42/26
