# Blender 4.1.1
# www.blender.org
mtllib switch_block.mtl
o Switch_Block
v -0.950000 1.946453 -1.000000
v -1.000000 1.946453 -0.950000
v -0.939645 1.996454 -0.939645
v -0.975000 1.946453 -0.975000
v 0.950000 1.946453 -1.000000
v 1.000000 1.946453 -0.950000
v 0.939645 1.996454 -0.939645
v 0.975000 1.946453 -0.975000
v -0.950000 1.946453 1.000000
v -1.000000 1.946453 0.950000
v -0.939645 1.996454 0.939645
v -0.975000 1.946453 0.975000
v 0.950000 1.946453 1.000000
v 1.000000 1.946453 0.950000
v 0.939645 1.996454 0.939645
v 0.975000 1.946453 0.975000
v -0.950000 0.050000 -1.000000
v -1.000000 0.050000 -0.950000
v -0.939645 0.000000 -0.939645
v -0.975000 0.050000 -0.975000
v 0.950000 0.050000 -1.000000
v 1.000000 0.050000 -0.950000
v 0.939645 0.000000 -0.939645
v 0.975000 0.050000 -0.975000
v -0.950000 0.050000 1.000000
v -1.000000 0.050000 0.950000
v -0.939645 0.000000 0.939645
v -0.975000 0.050000 0.975000
v 0.950000 0.050000 1.000000
v 1.000000 0.050000 0.950000
v 0.939645 0.000000 0.939645
v 0.975000 0.050000 0.975000
v 0.000000 1.946453 -1.000000
v 0.000000 1.996454 -0.939645
v 0.000000 1.946453 1.000000
v 0.000000 1.996454 0.939645
v 0.000000 0.050000 -1.000000
v 0.000000 0.000000 -0.939645
v 0.000000 0.050000 1.000000
v 0.000000 0.000000 0.939645
v -0.939645 1.996454 0.000000
v -1.000000 1.946453 0.000000
v 0.939645 1.996454 0.000000
v 1.000000 1.946453 0.000000
v -0.939645 0.000000 0.000000
v -1.000000 0.050000 0.000000
v 0.939645 0.000000 0.000000
v 1.000000 0.050000 0.000000
v 0.000000 0.000000 0.000000
v 0.000000 1.996454 0.000000
v -0.950000 0.998227 -1.000000
v -1.000000 0.998227 -0.950000
v -0.975000 0.998227 -0.975000
v 0.950000 0.998227 -1.000000
v 1.000000 0.998227 -0.950000
v 0.975000 0.998227 -0.975000
v -0.950000 0.998227 1.000000
v -1.000000 0.998227 0.950000
v -0.975000 0.998227 0.975000
v 0.950000 0.998227 1.000000
v 1.000000 0.998227 0.950000
v 0.975000 0.998227 0.975000
v 0.000000 0.998227 1.000000
v 0.000000 0.998227 -1.000000
v 1.000000 0.998227 0.000000
v -1.000000 0.998227 0.000000
vn -0.7071 -0.0000 -0.7071
vn -0.5000 0.7071 -0.5000
vn -0.0000 0.7701 -0.6380
vn -0.6380 0.7701 -0.0000
vn 0.7071 -0.0000 -0.7071
vn 0.5000 0.7071 -0.5000
vn -0.0000 -0.0000 -1.0000
vn -0.5000 0.7071 0.5000
vn -1.0000 -0.0000 -0.0000
vn -0.0000 0.7701 0.6380
vn -0.0000 1.0000 -0.0000
vn 0.5000 0.7071 0.5000
vn 1.0000 -0.0000 -0.0000
vn -0.0000 -0.0000 1.0000
vn 0.7071 -0.0000 0.7071
vn -0.7071 -0.0000 0.7071
vn -0.5000 -0.7071 -0.5000
vn -0.6380 -0.7701 -0.0000
vn 0.5000 -0.7071 -0.5000
vn -0.0000 -1.0000 -0.0000
vn 0.6380 0.7701 -0.0000
vn -0.5000 -0.7071 0.5000
vn 0.6380 -0.7701 -0.0000
vn 0.5000 -0.7071 0.5000
vn -0.0000 -0.7701 -0.6380
vn -0.0000 -0.7701 0.6380
vt 0.026590 0.500000
vt 0.031915 0.500000
vt 0.031915 0.642818
vt 0.026590 0.642818
vt 0.351100 0.969727
vt 0.347103 0.965366
vt 0.358866 0.962172
vt 0.355348 0.973859
vt 0.499792 0.966029
vt 0.499727 0.978244
vt 0.346918 0.821931
vt 0.346732 0.678496
vt 0.359004 0.681916
vt 0.358935 0.822044
vt 0.973410 0.500000
vt 0.973410 0.642818
vt 0.968085 0.642818
vt 0.968085 0.500000
vt 0.648882 0.978285
vt 0.644106 0.982629
vt 0.640718 0.969887
vt 0.653379 0.973638
vt 0.825000 0.175000
vt 0.825000 0.317818
vt 0.681915 0.317818
vt 0.681915 0.175000
vt 0.351030 0.673984
vt 0.355541 0.669803
vt 0.175000 0.500000
vt 0.175000 0.357182
vt 0.318085 0.357182
vt 0.318085 0.500000
vt 0.500111 0.683966
vt 0.500117 0.671752
vt 0.676590 0.317818
vt 0.676590 0.175000
vt 0.499952 0.824997
vt 0.649196 0.678012
vt 0.653379 0.682524
vt 0.641219 0.686015
vt 0.644692 0.673700
vt 0.825000 0.500000
vt 0.825000 0.642818
vt 0.681915 0.642818
vt 0.681915 0.500000
vt 0.500000 0.500000
vt 0.500000 0.357182
vt 0.643085 0.357182
vt 0.643085 0.500000
vt 0.648410 0.500000
vt 0.648410 0.642818
vt 0.643085 0.642818
vt 0.356915 0.500000
vt 0.356915 0.642818
vt 0.351590 0.642818
vt 0.351590 0.500000
vt 0.351030 0.023984
vt 0.355541 0.019803
vt 0.359004 0.031916
vt 0.346732 0.028496
vt 0.358935 0.172044
vt 0.358866 0.312172
vt 0.347103 0.315366
vt 0.346918 0.171931
vt 0.649196 0.028012
vt 0.653379 0.032524
vt 0.641219 0.036015
vt 0.644692 0.023700
vt 0.499952 0.174997
vt 0.640969 0.177951
vt 0.640718 0.319887
vt 0.499792 0.316029
vt 0.640969 0.827951
vt 0.653379 0.828081
vt 0.323410 0.500000
vt 0.323410 0.642818
vt 0.318085 0.642818
vt 0.351100 0.319727
vt 0.355348 0.323859
vt 0.653379 0.178081
vt 0.653379 0.323638
vt 0.676590 0.500000
vt 0.676590 0.642818
vt 0.648882 0.328285
vt 0.644106 0.332629
vt 0.500111 0.033966
vt 0.500117 0.021752
vt 0.499727 0.328244
vt 0.968085 0.175000
vt 0.973410 0.175000
vt 0.973410 0.317818
vt 0.968085 0.317818
vt 0.356915 0.357182
vt 0.031915 0.357182
vt 0.175000 0.642818
vt 0.968085 0.357182
vt 0.825000 0.357182
vt 0.968085 0.032182
vt 0.825000 0.032182
vt 0.500000 0.642818
vt 0.973410 0.032182
vt 0.676590 0.357182
vt 0.681915 0.357182
vt 0.323410 0.357182
vt 0.351590 0.357182
vt 0.648410 0.357182
vt 0.681915 0.032182
vt 0.676590 0.032182
vt 0.973410 0.357182
vt 0.026590 0.357182
s 0
usemtl Switch_-_Red_Material
f 53/1/1 52/2/1 2/3/1 4/4/1
f 4/5/2 2/6/2 3/7/2 1/8/2
f 34/9/3 33/10/3 1/8/3 3/7/3
f 42/11/4 10/12/4 11/13/4 41/14/4
f 56/15/5 8/16/5 6/17/5 55/18/5
f 8/19/6 5/20/6 7/21/6 6/22/6
f 64/23/7 33/24/7 5/25/7 54/26/7
f 12/27/8 9/28/8 11/13/8 10/12/8
f 66/29/9 46/30/9 26/31/9 58/32/9
f 36/33/10 11/13/10 9/28/10 35/34/10
f 54/26/5 5/25/5 8/35/5 56/36/5
f 50/37/11 41/14/11 11/13/11 36/33/11
f 16/38/12 14/39/12 15/40/12 13/41/12
f 65/42/13 44/43/13 14/44/13 61/45/13
f 63/46/14 39/47/14 29/48/14 60/49/14
f 60/49/15 62/50/15 16/51/15 13/52/15
f 57/53/16 9/54/16 12/55/16 59/56/16
f 20/57/17 17/58/17 19/59/17 18/60/17
f 45/61/18 27/62/18 26/63/18 46/64/18
f 24/65/19 22/66/19 23/67/19 21/68/19
f 49/69/20 47/70/20 31/71/20 40/72/20
f 43/73/21 15/40/21 14/39/21 44/74/21
f 59/75/16 12/76/16 10/77/16 58/32/16
f 28/78/22 26/63/22 27/62/22 25/79/22
f 48/80/23 30/81/23 31/71/23 47/70/23
f 62/82/15 61/45/15 14/44/15 16/83/15
f 32/84/24 29/85/24 31/71/24 30/81/24
f 38/86/25 19/59/25 17/58/25 37/87/25
f 40/72/26 39/88/26 25/79/26 27/62/26
f 51/89/1 53/90/1 4/91/1 1/92/1
f 31/71/26 29/85/26 39/88/26 40/72/26
f 23/67/25 38/86/25 37/87/25 21/68/25
f 45/61/20 49/69/20 40/72/20 27/62/20
f 57/53/14 25/93/14 39/47/14 63/46/14
f 43/73/11 50/37/11 36/33/11 15/40/11
f 15/40/10 36/33/10 35/34/10 13/41/10
f 51/89/7 1/92/7 33/24/7 64/23/7
f 7/21/3 5/20/3 33/10/3 34/9/3
f 7/21/11 34/9/11 50/37/11 43/73/11
f 19/59/20 38/86/20 49/69/20 45/61/20
f 22/66/23 48/80/23 47/70/23 23/67/23
f 7/21/21 43/73/21 44/74/21 6/22/21
f 38/86/20 23/67/20 47/70/20 49/69/20
f 19/59/18 45/61/18 46/64/18 18/60/18
f 55/18/13 6/17/13 44/43/13 65/42/13
f 34/9/11 3/7/11 41/14/11 50/37/11
f 52/2/9 18/94/9 46/30/9 66/29/9
f 2/6/4 42/11/4 41/14/4 3/7/4
f 2/3/9 52/2/9 66/29/9 42/95/9
f 22/96/13 55/18/13 65/42/13 48/97/13
f 17/98/7 51/89/7 64/23/7 37/99/7
f 9/54/14 57/53/14 63/46/14 35/100/14
f 17/98/1 20/101/1 53/90/1 51/89/1
f 32/102/15 30/103/15 61/45/15 62/82/15
f 28/104/16 59/75/16 58/32/16 26/31/16
f 25/93/16 57/53/16 59/56/16 28/105/16
f 29/48/15 32/106/15 62/50/15 60/49/15
f 35/100/14 63/46/14 60/49/14 13/52/14
f 48/97/13 65/42/13 61/45/13 30/103/13
f 21/107/5 54/26/5 56/36/5 24/108/5
f 42/95/9 66/29/9 58/32/9 10/77/9
f 37/99/7 64/23/7 54/26/7 21/107/7
f 24/109/5 56/15/5 55/18/5 22/96/5
f 20/110/1 18/94/1 52/2/1 53/1/1
