# Blender 4.1.1
# www.blender.org
mtllib button_block_-_block.mtl
o Button_Block
v 0.000000 -0.000000 -0.950000
v -0.000000 -0.000000 0.950000
v -0.950000 -0.000000 -0.000000
v -0.950000 2.000000 -0.000000
v 0.950000 2.000000 0.000000
v 0.950000 -0.000000 0.000000
v 0.000000 2.000000 -0.950000
v -0.000000 2.000000 0.950000
v -0.000000 2.030000 -0.858000
v 0.606698 2.030000 -0.606698
v 0.000000 2.030000 0.858000
v 0.606698 2.030000 0.606698
v 0.858000 2.030000 0.000000
v -0.858000 2.030000 0.000000
v -0.606698 2.030000 0.606698
v -0.606698 2.030000 -0.606698
v -0.000000 2.030000 -0.742500
v 0.525027 2.030000 -0.525027
v 0.000000 2.030000 0.742500
v 0.525027 2.030000 0.525027
v 0.742500 2.030000 0.000000
v -0.742500 2.030000 0.000000
v -0.525027 2.030000 0.525027
v -0.525027 2.030000 -0.525027
v -1.000000 2.000000 -0.950000
v -0.950000 2.000000 -1.000000
v -0.950000 -0.000000 -1.000000
v -1.000000 -0.000000 -0.950000
v 0.950000 -0.000000 1.000000
v 1.000000 -0.000000 0.950000
v 1.000000 2.000000 0.950000
v 0.950000 2.000000 1.000000
v 0.950000 2.000000 -1.000000
v 1.000000 2.000000 -0.950000
v 1.000000 -0.000000 -0.950000
v 0.950000 -0.000000 -1.000000
v -0.950000 2.000000 1.000000
v -1.000000 2.000000 0.950000
v -1.000000 -0.000000 0.950000
v -0.950000 -0.000000 1.000000
v -1.000000 -0.000000 0.000000
v -1.000000 2.000000 0.000000
v 0.000000 -0.000000 -1.000000
v 0.000000 2.000000 -1.000000
v 0.000000 2.000000 1.000000
v 1.000000 2.000000 0.000000
v 0.000000 -0.000000 1.000000
v 1.000000 -0.000000 0.000000
v -0.000000 2.000000 -0.858000
v 0.606698 2.000000 -0.606698
v 0.000000 2.000000 0.858000
v 0.606698 2.000000 0.606698
v 0.858000 2.000000 0.000000
v -0.858000 2.000000 0.000000
v -0.606698 2.000000 0.606698
v -0.606698 2.000000 -0.606698
v -0.975000 2.000000 0.975000
v -0.975000 -0.000000 0.975000
v -0.939645 2.000000 0.939645
v -0.939645 -0.000000 0.939645
v 0.975000 -0.000000 0.975000
v 0.975000 2.000000 0.975000
v 0.939645 -0.000000 0.939645
v 0.939645 2.000000 0.939645
v 0.975000 2.000000 -0.975000
v 0.975000 -0.000000 -0.975000
v 0.939645 2.000000 -0.939645
v 0.939645 -0.000000 -0.939645
v -0.975000 2.000000 -0.975000
v -0.975000 -0.000000 -0.975000
v -0.939645 2.000000 -0.939645
v -0.939645 -0.000000 -0.939645
v -0.353553 -0.000000 0.353553
v 0.500000 -0.000000 0.000000
v 0.353553 -0.000000 -0.353553
v 0.353553 -0.000000 0.353553
v 0.000000 -0.000000 -0.500000
v 0.000000 -0.000000 0.500000
v -0.500000 -0.000000 0.000000
v -0.353553 -0.000000 -0.353553
v 0.000000 -0.000000 0.000000
vn -0.0000 -1.0000 -0.0000
vn -0.0000 1.0000 -0.0000
vn -0.0000 0.6302 -0.7764
vn 0.5490 0.6302 -0.5490
vn -0.0000 0.6302 0.7764
vn 0.5490 0.6302 0.5490
vn 0.7764 0.6302 -0.0000
vn -0.7764 0.6302 -0.0000
vn -0.5490 0.6302 0.5490
vn -0.5490 0.6302 -0.5490
vn -0.7173 0.6303 -0.2971
vn -0.2971 0.6303 -0.7173
vn -0.2971 -0.6303 -0.7173
vn -0.7173 -0.6303 -0.2971
vn 0.2971 -0.6303 0.7173
vn 0.7173 -0.6303 0.2971
vn 0.7173 0.6303 0.2971
vn 0.2971 0.6303 0.7173
vn 0.2971 0.6303 -0.7173
vn 0.7173 0.6303 -0.2971
vn 0.7173 -0.6303 -0.2971
vn 0.2971 -0.6303 -0.7173
vn -0.2971 0.6303 0.7173
vn -0.7173 0.6303 0.2971
vn -0.7173 -0.6303 0.2971
vn -0.2971 -0.6303 0.7173
vn -0.7071 -0.7071 -0.0000
vn -0.7071 0.7071 -0.0000
vn -0.0000 -0.7071 -0.7071
vn -0.0000 0.7071 -0.7071
vn -0.0000 0.7071 0.7071
vn 0.7071 0.7071 -0.0000
vn -0.0000 -0.7071 0.7071
vn 0.7071 -0.7071 -0.0000
vn -0.0000 0.8042 -0.5944
vn 0.4203 0.8042 -0.4203
vn -0.0000 0.8042 0.5944
vn 0.4203 0.8042 0.4203
vn 0.5944 0.8042 -0.0000
vn -0.5944 0.8042 -0.0000
vn -0.4203 0.8042 0.4203
vn -0.4203 0.8042 -0.4203
vn -0.5000 0.7071 0.5000
vn -0.5000 -0.7071 0.5000
vn 0.5000 -0.7071 0.5000
vn 0.5000 0.7071 0.5000
vn 0.5000 0.7071 -0.5000
vn 0.5000 -0.7071 -0.5000
vn -0.5000 0.7071 -0.5000
vn -0.5000 -0.7071 -0.5000
vt 0.502484 0.353652
vt 0.502484 0.656194
vt 0.358777 0.656194
vt 0.358777 0.353652
vt 0.830596 0.353652
vt 0.830596 0.656194
vt 0.686888 0.656194
vt 0.686888 0.353652
vt 0.831007 0.021109
vt 0.831007 0.323652
vt 0.687300 0.323652
vt 0.687300 0.021109
vt 0.025317 0.656194
vt 0.025317 0.353652
vt 0.030665 0.353652
vt 0.030665 0.656194
vt 0.651540 0.353652
vt 0.651540 0.656194
vt 0.646192 0.656194
vt 0.646192 0.353652
vt 0.681951 0.323652
vt 0.681951 0.021109
vt 0.353428 0.656194
vt 0.353428 0.353652
vt 0.174372 0.353652
vt 0.174372 0.656194
vt 0.644626 0.695324
vt 0.594260 0.745690
vt 0.502484 0.707675
vt 0.502484 0.693758
vt 0.974715 0.021109
vt 0.974715 0.323652
vt 0.318080 0.353652
vt 0.318080 0.656194
vt 0.410708 0.745690
vt 0.360343 0.695324
vt 0.974304 0.353652
vt 0.974304 0.656194
vt 0.594260 0.929241
vt 0.632275 0.837465
vt 0.646192 0.837465
vt 0.644626 0.979607
vt 0.502484 0.981173
vt 0.502484 0.967256
vt 0.303376 0.837465
vt 0.261743 0.928446
vt 0.258037 0.924842
vt 0.298134 0.837489
vt 0.174372 0.698366
vt 0.267582 0.741729
vt 0.263820 0.745470
vt 0.174332 0.703703
vt 0.168660 0.967108
vt 0.168524 0.961769
vt 0.071170 0.927091
vt 0.033773 0.827932
vt 0.039218 0.827912
vt 0.074991 0.923112
vt 0.250302 0.757785
vt 0.173395 0.722049
vt 0.280123 0.836831
vt 0.089290 0.909298
vt 0.168646 0.943392
vt 0.246367 0.912671
vt 0.057939 0.828637
vt 0.081209 0.737478
vt 0.093610 0.751168
vt 0.077436 0.733661
vt 0.372694 0.837465
vt 0.358777 0.837465
vt 0.354995 0.984955
vt 0.351213 0.981173
vt 0.360343 0.979607
vt 0.358777 0.988737
vt 0.354995 0.024891
vt 0.358777 0.021109
vt 0.360343 0.030239
vt 0.351213 0.028673
vt 0.649974 0.319870
vt 0.646192 0.323652
vt 0.644625 0.314522
vt 0.653756 0.316088
vt 0.649974 0.689976
vt 0.653756 0.693758
vt 0.646192 0.686194
vt 0.649974 0.984955
vt 0.646192 0.988737
vt 0.653756 0.981173
vt 0.649974 0.024891
vt 0.653756 0.028673
vt 0.644625 0.030239
vt 0.646192 0.021109
vt 0.354995 0.689976
vt 0.358777 0.686194
vt 0.351213 0.693758
vt 0.360343 0.314522
vt 0.502484 0.316088
vt 0.502484 0.323652
vt 0.358777 0.323652
vt 0.502484 0.988737
vt 0.358777 0.172380
vt 0.351213 0.172380
vt 0.653756 0.837465
vt 0.351213 0.316088
vt 0.351213 0.837465
vt 0.646192 0.172380
vt 0.653756 0.172380
vt 0.502484 0.686194
vt 0.502484 0.028673
vt 0.502484 0.021109
vt 0.426849 0.172380
vt 0.449002 0.225863
vt 0.354995 0.319870
vt 0.323428 0.353652
vt 0.323428 0.656194
vt 0.681540 0.656194
vt 0.681540 0.353652
vt 0.979652 0.353652
vt 0.979652 0.656194
vt 0.980063 0.021109
vt 0.980063 0.323652
vt 0.578120 0.172380
vt 0.555967 0.118898
vt 0.502484 0.096745
vt 0.449002 0.118898
vt 0.502484 0.248016
vt 0.555967 0.225863
vt 0.410708 0.929241
vt 0.502484 0.172380
s 1
usemtl Button_-_Block_Material
f 47/1/33 45/2/31 37/3/23 40/4/26
f 48/5/34 46/6/32 31/7/17 30/8/16
f 43/9/29 44/10/30 33/11/19 36/12/22
f 69/13/49 70/14/50 28/15/14 25/16/11
f 61/17/45 62/18/46 32/19/18 29/20/15
f 65/21/47 66/22/48 36/12/22 33/11/19
f 57/23/43 58/24/44 40/4/26 37/3/23
f 41/25/27 42/26/28 25/16/11 28/15/14
f 64/27/2 52/28/38 51/29/37 8/30/2
f 27/31/13 26/32/12 44/10/30 43/9/29
f 29/20/15 32/19/18 45/2/31 47/1/33
f 39/33/25 38/34/24 42/26/28 41/25/27
f 55/35/41 59/36/2 8/30/2 51/29/37
f 35/37/21 34/38/20 46/6/32 48/5/34
f 50/39/36 53/40/39 5/41/2 67/42/2
f 5/41/2 53/40/39 52/28/38 64/27/2
f 7/43/2 49/44/35 50/39/36 67/42/2
f 53/45/39 50/46/36 10/47/4 13/48/7
f 51/49/37 52/50/38 12/51/6 11/52/5
f 50/46/36 49/53/35 9/54/3 10/47/4
f 56/55/42 54/56/40 14/57/8 16/58/10
f 11/52/5 12/51/6 20/59/2 19/60/2
f 12/51/6 13/48/7 21/61/2 20/59/2
f 9/54/3 16/58/10 24/62/2 17/63/2
f 13/48/7 10/47/4 18/64/2 21/61/2
f 10/47/4 9/54/3 17/63/2 18/64/2
f 16/58/10 14/57/8 22/65/2 24/62/2
f 15/66/9 11/52/5 19/60/2 23/67/2
f 14/57/8 15/66/9 23/67/2 22/65/2
f 54/56/40 55/68/41 15/66/9 14/57/8
f 49/53/35 56/55/42 16/58/10 9/54/3
f 55/68/41 51/49/37 11/52/5 15/66/9
f 52/50/38 53/45/39 13/48/7 12/51/6
f 55/35/41 54/69/40 4/70/2 59/36/2
f 69/71/49 25/72/11 71/73/2 26/74/12
f 70/75/50 27/76/13 72/77/1 28/78/14
f 61/79/45 29/80/15 63/81/1 30/82/16
f 62/83/46 31/84/17 64/27/2 32/85/18
f 65/86/47 33/87/19 67/42/2 34/88/20
f 66/89/48 35/90/21 68/91/1 36/92/22
f 57/93/43 37/94/23 59/36/2 38/95/24
f 60/96/1 2/97/1 47/98/33 40/99/26
f 71/73/2 7/43/2 44/100/30 26/74/12
f 72/77/1 3/101/1 41/102/27 28/78/14
f 67/42/2 5/41/2 46/103/32 34/88/20
f 3/101/1 60/96/1 39/104/25 41/102/27
f 5/41/2 64/27/2 31/84/17 46/103/32
f 2/97/1 63/81/1 29/80/15 47/98/33
f 7/43/2 67/42/2 33/87/19 44/100/30
f 59/36/2 4/70/2 42/105/28 38/95/24
f 63/81/1 6/106/1 48/107/34 30/82/16
f 6/106/1 68/91/1 35/90/21 48/107/34
f 64/27/2 8/30/2 45/108/31 32/85/18
f 68/91/1 1/109/1 43/110/29 36/92/22
f 60/96/1 3/101/1 79/111/1 73/112/1
f 60/96/1 40/99/26 58/113/44 39/104/25
f 38/34/24 39/33/25 58/114/44 57/115/43
f 30/8/16 31/7/17 62/116/46 61/117/45
f 34/38/20 35/37/21 66/118/48 65/119/47
f 26/32/12 27/31/13 70/120/50 69/121/49
f 6/106/1 74/122/1 75/123/1 68/91/1
f 1/109/1 77/124/1 80/125/1 72/77/1
f 60/96/1 73/112/1 78/126/1 2/97/1
f 2/97/1 78/126/1 76/127/1 63/81/1
f 4/70/2 54/69/40 56/128/42 71/73/2
f 56/128/42 49/44/35 7/43/2 71/73/2
f 80/125/1 79/111/1 3/101/1 72/77/1
f 76/127/1 74/122/1 6/106/1 63/81/1
f 75/123/1 77/124/1 1/109/1 68/91/1
f 80/125/1 77/124/1 81/129/1 79/111/1
f 79/111/1 81/129/1 78/126/1 73/112/1
f 77/124/1 75/123/1 74/122/1 81/129/1
f 81/129/1 74/122/1 76/127/1 78/126/1
f 1/109/1 72/77/1 27/76/13 43/110/29
f 8/30/2 59/36/2 37/94/23 45/108/31
f 4/70/2 71/73/2 25/72/11 42/105/28
