# Blender 4.1.1
# www.blender.org
mtllib portal_block_-_portal_inverted.mtl
o Portal_Effect_(Flipped_Normals)
v 0.000000 0.000000 -1.000000
v 0.000000 2.000000 -1.000000
v 0.707107 0.000000 -0.707107
v 0.707107 2.000000 -0.707107
v 1.000000 0.000000 0.000000
v 1.000000 2.000000 0.000000
v 0.707107 0.000000 0.707107
v 0.707107 2.000000 0.707107
v 0.000000 0.000000 1.000000
v 0.000000 2.000000 1.000000
v -0.707107 0.000000 0.707107
v -0.707107 2.000000 0.707107
v -1.000000 0.000000 0.000000
v -1.000000 2.000000 0.000000
v -0.707107 0.000000 -0.707107
v -0.707107 2.000000 -0.707107
v 0.000000 2.000000 0.000000
v 0.000000 0.000000 0.000000
vn -0.0000 0.6302 0.7764
vn -0.0000 -0.6302 0.7764
vn -0.5490 0.6303 0.5490
vn -0.5490 -0.6303 0.5490
vn -0.7764 0.6302 -0.0000
vn -0.7764 -0.6302 -0.0000
vn -0.5490 0.6303 -0.5490
vn -0.5490 -0.6303 -0.5490
vn -0.0000 0.6302 -0.7764
vn -0.0000 -0.6302 -0.7764
vn 0.5490 0.6303 -0.5490
vn 0.5490 -0.6303 -0.5490
vn 0.7764 0.6302 -0.0000
vn 0.7764 -0.6302 -0.0000
vn 0.5490 0.6303 0.5490
vn 0.5490 -0.6303 0.5490
vn -0.0000 -1.0000 -0.0000
vn -0.0000 1.0000 -0.0000
vt 0.031543 0.050106
vt 0.031543 0.162579
vt 0.325450 0.162579
vt 0.325450 0.050106
vt 0.031543 0.275053
vt 0.325450 0.275053
vt 0.031543 0.387526
vt 0.325450 0.387526
vt 0.031543 0.500000
vt 0.325450 0.500000
vt 0.031543 0.612474
vt 0.325450 0.612474
vt 0.031543 0.724947
vt 0.325450 0.724947
vt 0.661430 0.748109
vt 0.661430 0.527678
vt 0.505561 0.592240
vt 0.440999 0.748109
vt 0.031543 0.837421
vt 0.325450 0.837421
vt 0.031543 0.949894
vt 0.325450 0.949894
vt 0.661430 0.254201
vt 0.661429 0.033770
vt 0.505561 0.098333
vt 0.440999 0.254201
vt 0.881860 0.748109
vt 0.817297 0.592241
vt 0.661429 0.968539
vt 0.505561 0.903977
vt 0.817297 0.903977
vt 0.881860 0.254201
vt 0.817297 0.098333
vt 0.817297 0.410069
vt 0.661430 0.474632
vt 0.505561 0.410069
s 1
usemtl Portal_-_Effect_Material
f 1/1/1 3/2/3 4/3/4 2/4/2
f 3/2/3 5/5/5 6/6/6 4/3/4
f 5/5/5 7/7/7 8/8/8 6/6/6
f 7/7/7 9/9/9 10/10/10 8/8/8
f 9/9/9 11/11/11 12/12/12 10/10/10
f 11/11/11 13/13/13 14/14/14 12/12/12
f 17/15/17 10/16/10 12/17/12 14/18/14
f 13/13/13 15/19/15 16/20/16 14/14/14
f 15/19/15 1/21/1 2/22/2 16/20/16
f 18/23/18 9/24/9 7/25/7 5/26/5
f 6/27/6 8/28/8 10/16/10 17/15/17
f 2/29/2 17/15/17 14/18/14 16/30/16
f 4/31/4 6/27/6 17/15/17 2/29/2
f 13/32/13 11/33/11 9/24/9 18/23/18
f 15/34/15 13/32/13 18/23/18 1/35/1
f 1/35/1 18/23/18 5/26/5 3/36/3
